<svg width="48" height="28" fill="none" xmlns="http://www.w3.org/2000/svg"><path d="M43.15 12.282a4.712 4.712 0 00-1.682.324l-5.74-4.785a6.214 6.214 0 00.241-1.633c0-3.378-2.666-6.093-5.984-6.093S24 2.81 24 6.188c0 .966.24 1.865.628 2.674l-6.964 8.38a4.855 4.855 0 00-.845-.085c-.428 0-.833.073-1.226.18L9.458 11.09c.108-.397.18-.81.18-1.245 0-2.701-2.136-4.875-4.788-4.875S.063 7.144.063 9.845c0 2.7 2.135 4.874 4.787 4.874.429 0 .833-.073 1.226-.18l6.135 6.247a4.728 4.728 0 00-.18 1.246c0 2.7 2.136 4.875 4.788 4.875s4.788-2.175 4.788-4.875c0-.578-.115-1.122-.295-1.636l6.973-8.39c.544.161 1.106.276 1.7.276a5.85 5.85 0 002.712-.685l5.743 4.785a5.165 5.165 0 00-.077.775c0 2.7 2.135 4.875 4.788 4.875 2.652 0 4.787-2.174 4.787-4.875 0-2.7-2.135-4.875-4.787-4.875z" fill="#0D5C63"/></svg>